<svg width="73" height="16" viewBox="0 0 73 16" fill="currentColor" xmlns="http://www.w3.org/2000/svg">
<path fill-rule="evenodd" clip-rule="evenodd" d="M41.0529 6.84706C41.022 7.07925 40.7926 7.22825 40.5573 7.18406L38.3033 6.76065C38.0644 6.71576 37.9121 6.48846 37.9258 6.25101C37.9291 6.19386 37.9308 6.13608 37.9308 6.07769C37.9308 6.0193 37.9291 5.96151 37.9258 5.90436C37.9121 5.66691 38.0644 5.43961 38.3033 5.39472L40.5573 4.97131C40.7926 4.92712 41.022 5.07612 41.0529 5.30831C41.0864 5.56028 41.1037 5.81707 41.1037 6.07769C41.1037 6.3383 41.0864 6.59509 41.0529 6.84706ZM39.7578 2.34872C39.9116 2.5364 39.8555 2.80901 39.6493 2.94011L37.7458 4.15015C37.5473 4.27638 37.284 4.22267 37.1248 4.05131C37.0395 3.9596 36.9486 3.87273 36.8526 3.79122C36.6668 3.63356 36.6095 3.36391 36.7491 3.16591L38.0179 1.36621C38.1523 1.17558 38.4187 1.12307 38.6082 1.26187C39.038 1.57658 39.4245 1.94201 39.7578 2.34872ZM35.5158 0.0485206C35.7573 0.0775743 35.9127 0.305977 35.8641 0.53902L35.4228 2.65718C35.375 2.88661 35.147 3.03283 34.9079 3.01883C34.8405 3.01489 34.7722 3.01287 34.7032 3.01287C34.6341 3.01287 34.5659 3.01489 34.4985 3.01883C34.2594 3.03283 34.0313 2.88661 33.9836 2.65718L33.5423 0.53902C33.4937 0.305977 33.6491 0.0775743 33.8906 0.0485206C34.1567 0.0165018 34.4279 0 34.7032 0C34.9785 0 35.2497 0.0165018 35.5158 0.0485206ZM2.85157 12.6982V9.86172H3.42322L5.29696 12.6982H8.29813L5.66219 8.89546L8.13934 5.21742H5.12229L3.45498 7.83569H2.85157V5.21742H0.1521V12.6982H2.85157ZM12.7685 7.24346H14.1182V12.6982H16.8177V5.21742H10.3072C10.1643 8.20972 10.0055 10.6098 8.86222 10.6098C8.73518 10.6098 8.59227 10.5786 8.43348 10.5163V12.6202C8.94161 12.7917 9.40211 12.8696 9.79909 12.8696C11.9587 12.8696 12.578 10.3604 12.7685 7.24346ZM23.5162 9.1604L20.8009 12.6982H18.4349V5.21742H21.1344V8.75519L23.8497 5.21742H26.2157V12.6982H23.5162V9.1604ZM30.5316 12.6982V9.86172H31.1033L32.977 12.6982H35.9782L33.3423 8.89546L35.8194 5.21742H32.8024L31.135 7.83569H30.5316V5.21742H27.8322V12.6982H30.5316ZM53.6711 9.0416C53.6711 6.64216 52.2982 5.36245 50.4782 5.36245C49.3287 5.36245 48.6103 5.87434 48.1633 6.43421C48.1633 5.81035 48.5624 4.91456 49.3447 4.53065C49.9338 4.23908 50.526 4.16882 51.0891 4.10201C51.7927 4.01853 52.4508 3.94045 53.0006 3.4429V1.04346C52.5073 1.52255 51.7866 1.6365 50.9296 1.77202C49.9839 1.92156 48.872 2.09737 47.7163 2.81904C46.3433 3.68284 45.3695 5.1705 45.3695 8.00184C45.3695 11.521 47.3012 12.7207 49.5203 12.7207C51.8192 12.7207 53.6711 11.521 53.6711 9.0416ZM48.1633 9.0416C48.1633 8.49773 48.3229 7.44197 49.5203 7.44197C50.7177 7.44197 50.8773 8.49773 50.8773 9.0416C50.8773 9.58547 50.7177 10.6412 49.5203 10.6412C48.3229 10.6412 48.1633 9.58547 48.1633 9.0416ZM62.1965 10.2893V8.14581C62.1965 5.41044 60.6319 4.56264 58.1893 4.56264C57.0558 4.56264 55.8425 4.86657 55.2039 5.07452V7.36199C55.9542 7.05806 56.8802 6.77013 57.886 6.77013C58.9716 6.77013 59.4825 7.18603 59.4825 7.7299V8.00184C58.9716 7.88987 58.3968 7.82588 57.8221 7.82588C56.3374 7.82588 54.5014 8.41774 54.5014 10.3533C54.5014 11.841 55.6988 12.7207 57.1676 12.7207C58.2532 12.7207 59.0993 12.3688 59.8337 11.793C60.1849 12.3368 60.8075 12.6408 61.6537 12.6408C62.1645 12.6408 62.6594 12.5448 63.0266 12.4008V10.7212C62.9308 10.7532 62.8191 10.7692 62.7233 10.7692C62.4519 10.7692 62.1965 10.6572 62.1965 10.2893ZM57.2953 10.1293C57.2953 9.52149 57.87 9.29754 58.5086 9.29754C58.8758 9.29754 59.243 9.36153 59.4825 9.44151V10.4813C59.0674 10.7852 58.6682 10.8812 58.2212 10.8812C57.6465 10.8812 57.2953 10.5293 57.2953 10.1293ZM66.5416 4.80258V5.84234C66.9248 5.20249 67.7709 4.56264 69.1439 4.56264C71.7142 4.56264 72.8477 6.65815 72.8477 8.64169C72.8477 10.6252 71.7142 12.7207 69.1439 12.7207C68.0742 12.7207 67.3239 12.3368 66.8609 11.8569V16H64.1469V4.80258H66.5416ZM68.4095 10.4813C69.559 10.4813 70.0539 9.53749 70.0539 8.64169C70.0539 7.7459 69.559 6.80212 68.4095 6.80212C67.6592 6.80212 67.1004 7.26601 66.8609 7.7619V9.52149C67.1004 10.0174 67.6592 10.4813 68.4095 10.4813Z" />
</svg>
