<svg width="20" height="20" viewBox="0 0 20 20" fill="currentColor" xmlns="http://www.w3.org/2000/svg">
<path d="M5.34907 8.63102C6.48241 10.8583 8.30833 12.6843 10.5356 13.8176L12.2671 12.0861C12.4875 11.8657 12.7944 11.8028 13.0699 11.8894C13.9514 12.1806 14.8958 12.338 15.8796 12.338C16.0884 12.338 16.2886 12.4209 16.4361 12.5685C16.5837 12.7161 16.6667 12.9163 16.6667 13.125V15.8796C16.6667 16.0884 16.5837 16.2886 16.4361 16.4361C16.2886 16.5837 16.0884 16.6667 15.8796 16.6667C12.3311 16.6667 8.92797 15.257 6.4188 12.7479C3.90964 10.2387 2.5 6.83554 2.5 3.28704C2.5 3.0783 2.58292 2.87812 2.73052 2.73052C2.87812 2.58292 3.0783 2.5 3.28704 2.5H6.04167C6.2504 2.5 6.45059 2.58292 6.59819 2.73052C6.74578 2.87812 6.8287 3.0783 6.8287 3.28704C6.8287 4.27083 6.98611 5.21528 7.27731 6.09676C7.36389 6.37222 7.30093 6.67917 7.08055 6.89954L5.34907 8.63102Z"/>
</svg>
