<svg width="28" height="38" fill="currentColor" xmlns="http://www.w3.org/2000/svg">
  <path d="M7.157 32.938h-3.42c-.628 0-1.141-.713-1.141-1.584V20.267c0-.871.513-1.584 1.14-1.584h3.421c.628 0 1.14.713 1.14 1.584v11.087c0 .871-.512 1.584-1.14 1.584Zm1.928-12.673s3.397-1.698 5.095-9.34c.17-.935 2.547-1.699 3.397 1.698.849 3.396 0 5.944 0 5.944s5.264-.68 6.793 0c1.019.424 1.698 2.547 0 4.245 0 0 1.698 1.699 0 3.397 0 0 1.698 1.698-.85 3.396 0 0 1.699 1.699 0 3.397-2.717 2.717-8.49 1.698-14.435-.85V20.266Z"/>
  <path fill-rule="evenodd" clip-rule="evenodd" d="M26.973 12.877c-.057.42-.481.689-.916.609l-4.169-.765c-.442-.082-.723-.492-.698-.922a5.315 5.315 0 0 0 0-.626c-.025-.43.256-.84.698-.921l4.169-.766c.435-.08.86.19.916.61a10.307 10.307 0 0 1 0 2.78Zm-2.395-8.131c.285.339.18.832-.2 1.069l-3.52 2.187c-.368.228-.855.13-1.15-.179a5.851 5.851 0 0 0-.503-.47c-.343-.285-.45-.772-.191-1.13L21.36 2.97a.79.79 0 0 1 1.092-.189c.795.569 1.51 1.23 2.126 1.965ZM16.733.588a.737.737 0 0 1 .645.886l-.817 3.83c-.088.414-.51.678-.952.653a6.631 6.631 0 0 0-.757 0c-.442.025-.864-.24-.952-.654l-.816-3.829a.737.737 0 0 1 .644-.886 12.865 12.865 0 0 1 3.005 0Z"/>
</svg>
