<svg width="20" height="16" viewBox="0 0 20 16" xmlns="http://www.w3.org/2000/svg">
<path fill-rule="evenodd" clip-rule="evenodd" d="M0.749705 7.44244C2.70133 6.35378 4.87986 5.44519 6.91538 4.53195C10.4173 3.03612 13.933 1.56623 17.4843 0.19777C18.1752 -0.0354014 19.4167 -0.26336 19.5385 0.773585C19.4718 2.24137 19.1976 3.70056 19.0095 5.15975C18.5322 8.36864 17.9803 11.5665 17.4423 14.7649C17.2568 15.8301 15.9391 16.3817 15.0958 15.7C13.0694 14.3137 11.0273 12.9411 9.02672 11.5227C8.37131 10.8483 8.97914 9.87996 9.56429 9.3984C11.2334 7.73253 13.0034 6.31743 14.5853 4.56562C15.0119 3.52205 13.7512 4.40148 13.3354 4.671C11.0504 6.26559 8.82137 7.95753 6.41231 9.35895C5.18176 10.0449 3.74754 9.4587 2.51755 9.0759C1.41471 8.61351 -0.201344 8.14759 0.749565 7.44258L0.749705 7.44244Z" />
</svg>
