<svg width="22" height="14" viewBox="0 0 22 14" xmlns="http://www.w3.org/2000/svg">
<path d="M21.4986 0.886246C21.6497 0.375735 21.4986 0 20.7716 0H18.3661C17.7535 0 17.4717 0.322642 17.3206 0.682042C17.3206 0.682042 16.0954 3.66751 14.3637 5.60336C13.8042 6.16288 13.5469 6.34258 13.2406 6.34258C13.0895 6.34258 12.8567 6.16288 12.8567 5.65237V0.886246C12.8567 0.273633 12.6852 0 12.1787 0H8.39687C8.01297 0 7.78426 0.285886 7.78426 0.551351C7.78426 1.13129 8.65009 1.26607 8.73993 2.8997V6.44468C8.73993 7.22066 8.60108 7.3636 8.29477 7.3636C7.47795 7.3636 5.49309 4.36588 4.31687 0.935255C4.08 0.269549 3.84721 0 3.23051 0H0.824984C0.138859 0 0 0.322642 0 0.682042C0 1.31916 0.816816 4.48432 3.80228 8.66642C5.79123 11.5212 8.59291 13.0691 11.1414 13.0691C12.6729 13.0691 12.8608 12.726 12.8608 12.1338C12.8608 9.40564 12.7219 9.14834 13.4897 9.14834C13.845 9.14834 14.4577 9.32804 15.8871 10.7044C17.5207 12.338 17.7903 13.0691 18.7051 13.0691H21.1106C21.7967 13.0691 22.1439 12.726 21.9438 12.048C21.4864 10.6227 18.3947 7.69033 18.2558 7.49429C17.9005 7.03687 18.0026 6.83267 18.2558 6.42426C18.2599 6.42018 21.1964 2.28709 21.4986 0.886246Z" />
</svg>
