<svg width="20" height="14" viewBox="0 0 20 14" xmlns="http://www.w3.org/2000/svg">
<path d="M19.5812 2.09302C19.468 1.6891 19.2474 1.32341 18.943 1.03483C18.6299 0.73737 18.2462 0.524592 17.8281 0.416576C16.2633 0.00413176 9.99417 0.00413185 9.99417 0.00413185C7.38063 -0.0256036 4.76773 0.10518 2.17022 0.395746C1.7521 0.511741 1.36913 0.729273 1.05537 1.02899C0.74708 1.32562 0.523777 1.6914 0.407126 2.09218C0.126908 3.60177 -0.00924109 5.13456 0.00051425 6.6699C-0.0094844 8.20386 0.126331 9.73616 0.407126 11.2476C0.521277 11.6467 0.743748 12.0109 1.05287 12.305C1.362 12.5991 1.74695 12.8116 2.17022 12.9241C3.75584 13.3357 9.99417 13.3357 9.99417 13.3357C12.611 13.3654 15.2273 13.2347 17.8281 12.9441C18.2462 12.836 18.6299 12.6233 18.943 12.3258C19.2473 12.0373 19.4676 11.6715 19.5804 11.2676C19.8679 9.75861 20.0077 8.22519 19.9978 6.68907C20.0194 5.14644 19.8798 3.60578 19.5812 2.09218V2.09302ZM8.0011 9.52285V3.81779L13.2171 6.67074L8.0011 9.52285Z" />
</svg>
